<?xml version="1.0" encoding="UTF-8"?>
<svg width="43px" height="43px" viewBox="0 0 43 43" version="1.1" xmlns="http://www.w3.org/2000/svg" xmlns:xlink="http://www.w3.org/1999/xlink">
    <!-- Generator: Sketch 55.2 (78181) - https://sketchapp.com -->
    <title>Facebook_Logo_Software_Factory</title>
    <desc>Created with Sketch.</desc>
    <g id="Home-Expertise" stroke="none" stroke-width="1" fill="none" fill-rule="evenodd">
        <g id="Home" transform="translate(-1054.000000, -7535.000000)">
            <g id="Get-In-Contact" transform="translate(30.000000, 5836.000000)">
                <g id="Group" transform="translate(70.000000, 1329.000000)">
                    <g id="Client-Support" transform="translate(899.000000, 159.000000)">
                        <g id="Facebook_Logo_Software_Factory" transform="translate(55.187500, 211.865234)">
                            <path d="M21.0009,3.69482223e-13 C9.4021,3.69482223e-13 3.41060513e-13,9.4056 3.41060513e-13,21.0009 C3.41060513e-13,32.5997 9.4021,42.0017 21.0009,42.0017 C32.5997,42.0017 42.0017,32.5997 42.0017,21.0009 C42,9.4056 32.5979,3.69482223e-13 21.0009,3.69482223e-13 Z" id="Path" fill="#F5A623"></path>
                            <path d="M26.56,20.9117 L22.9232,20.9117 C22.9232,26.7243 22.9232,33.8824 22.9232,33.8824 L17.5319,33.8824 C17.5319,33.8824 17.5319,26.7959 17.5319,20.9117 L14.9699,20.9117 L14.9699,16.333 L17.5319,16.333 L17.5319,13.3656 C17.5319,11.2388 18.542,7.9271 22.9739,7.9271 L26.9619,7.9428 L26.9619,12.3887 C26.9619,12.3887 24.5345,12.3887 24.0662,12.3887 C23.5926,12.3887 22.9232,12.6281 22.9232,13.633 L22.9232,16.333 L27.0318,16.333 L26.56,20.9117 Z" id="Path" fill="#0D1B1F"></path>
                        </g>
                    </g>
                </g>
            </g>
        </g>
    </g>
</svg>