<?xml version="1.0" encoding="UTF-8"?>
<svg width="75px" height="47px" viewBox="0 0 75 47" version="1.1" xmlns="http://www.w3.org/2000/svg" xmlns:xlink="http://www.w3.org/1999/xlink">
    <!-- Generator: Sketch 55.2 (78181) - https://sketchapp.com -->
    <title>increase_satisfaction_with_our_factory</title>
    <desc>Created with Sketch.</desc>
    <g id="Home-Expertise" stroke="none" stroke-width="1" fill="none" fill-rule="evenodd">
        <g id="Home" transform="translate(-1066.000000, -6412.000000)">
            <g id="Group-4" transform="translate(936.000000, 6412.000000)">
                <g id="increase_satisfaction_with_our_factory" transform="translate(130.000000, 0.000000)">
                    <path d="M0.412867647,6.44316177 C0.604779411,6.41154411 0.681249999,6.2519853 0.773161764,6.11301471 C1.29889706,5.31007353 2.0680147,4.99463235 2.99742647,4.99536765 C4.30110294,4.99610295 5.6055147,4.99022058 6.90845589,4.99610295 C8.7944853,5.00345589 9.68051472,5.89977942 9.68198529,7.81816176 C9.68639706,13.2747794 9.68419119,18.7313971 9.68419119,24.1880147 C9.68419119,25.4196323 9.6922794,26.6505147 9.68051472,27.8821324 C9.66507354,29.5380147 8.72610294,30.4703676 7.05551472,30.4872795 C5.77610295,30.4997793 4.49595588,30.4740441 3.21654411,30.4961028 C2.15110294,30.5144853 1.27095588,30.2041911 0.687867648,29.2541912 C0.631250001,29.1622794 0.50625,29.1130147 0.412867647,29.0431618 L0.412867647,6.44316177 Z" id="Fill-64" fill="#FFFFFF"></path>
                    <path d="M74.5871325,29.0430147 C74.3658087,29.08125 74.2937499,29.2775735 74.1856617,29.43125 C73.6908087,30.138603 73.0003677,30.4783089 72.1518381,30.4849266 C70.6812501,30.4974264 69.2106618,30.5106618 67.7400735,30.4812501 C66.2952207,30.4518381 65.329044,29.4981618 65.3261028,28.0503676 C65.3099265,21.1790441 65.3099265,14.3084559 65.3253675,7.43713236 C65.329044,5.98860294 66.2915442,5.03713236 67.7393382,5.00625 C69.2099265,4.97536764 70.6812501,4.98933825 72.1511028,5.00330883 C72.9966912,5.01066177 73.6930146,5.3430147 74.186397,6.0547794 C74.2930146,6.20845587 74.3658087,6.40477941 74.5871325,6.44301471 L74.5871325,29.0430147 Z" id="Fill-66" fill="#FFFFFF"></path>
                    <path d="M28.4625,40.439706 C27.5220588,41.257353 26.4691177,41.7911766 25.1830883,41.5985295 C23.0676471,41.2816176 21.7691177,39.5904411 21.9705882,37.4588235 C21.9889706,37.2683823 22.0066177,37.0764705 22.0242647,36.8860293 C22.032353,36.8499999 22.0411765,36.8147058 22.0485294,36.7794117 C22.0132353,36.7919118 21.9779412,36.8051472 21.9426471,36.817647 C21.0875,37.6264707 20.1102941,38.1544119 18.8955882,38.1007353 C16.1867647,37.9823529 14.5382353,35.2147059 15.7102941,32.7632352 C16.3625,31.3992648 16.3632353,31.3985295 14.982353,30.7889706 C14.2095588,30.4477941 13.444853,30.0845589 12.6588235,29.7794118 C12.1492647,29.5816177 11.9669118,29.2661765 11.9948529,28.7338235 C12.0301471,28.0352941 11.9963235,27.3330882 12.0051471,26.6338235 C12.0154412,25.9088235 12.1007353,25.8470588 12.75,26.1441176 C14.2867647,26.8463235 15.8235294,27.5485294 17.344853,28.2830882 C17.8294118,28.517647 18.1735294,28.517647 18.6426471,28.1705882 C21.0066176,26.4213235 24.1691177,27.8529412 24.5536765,30.8124999 C24.6955883,31.9110294 24.7007353,31.9139706 25.6507353,31.4044119 C27.9183824,30.1889706 30.5801472,31.4360295 31.1044119,33.9595587 C31.2838236,34.8264705 31.8419118,35.1808824 32.7154413,34.9830882 C34.5786765,34.5624999 35.9750001,35.1985293 36.8676471,36.8985294 C37.0102941,37.1705883 37.1830881,37.3683825 37.4617647,37.4941176 C38.760294,38.0794119 40.042647,38.7007353 41.355147,39.2522058 C42.517647,39.7404411 43.8080883,39.1566177 44.2073529,38.0308824 C44.4551472,37.3301472 44.3264706,37.0088235 43.65,36.7220589 C41.6941176,35.8933824 39.7338234,35.077206 37.7794119,34.2463236 C37.425,34.0963236 37.0602942,33.9426471 36.7551471,33.7161765 C36.2389707,33.3345588 36.0382353,32.8014705 36.3029412,32.1830883 C36.555147,31.5926472 37.0588236,31.3816176 37.6654413,31.4647059 C37.9941177,31.5095589 38.3205882,31.6250001 38.6294118,31.7544117 C41.8125,33.0875001 44.9919117,34.4301471 48.172794,35.7705882 C48.7088235,35.9970588 49.244853,36.2124999 49.8507354,36.082353 C50.7867648,35.880147 51.4595589,35.1698529 51.5661765,34.2580881 C51.6875001,33.2139705 51.2338236,32.4080883 50.1926472,31.9595589 C47.9095587,30.9764706 45.6139707,30.0220587 43.3235295,29.0558824 C42.0117648,28.5029412 40.6970589,27.955147 39.3867648,27.3963235 C39.0999999,27.2735294 38.8029411,27.1485294 38.5551471,26.9647059 C38.0750001,26.6080882 37.8051471,26.1308824 38.0132352,25.5161765 C38.2308825,24.8764706 38.7264705,24.6485294 39.3764706,24.675 C39.825,24.692647 40.2154413,24.8860294 40.6139706,25.0536765 C44.730147,26.7852941 48.8441175,28.5205882 52.9588236,30.2544117 C53.4279411,30.4522059 53.8977942,30.6375 54.4264707,30.5632353 C55.3977942,30.4250001 56.1794118,29.6654412 56.3117646,28.7235294 C56.444853,27.7779412 55.9514706,26.8779412 54.9882354,26.4588235 C52.9742646,25.5838235 50.9448528,24.7433824 48.9213234,23.8889706 C46.1419119,22.7161765 43.3610295,21.5470588 40.5830883,20.3698529 C39.4316175,19.8816176 39.0066177,19.2183823 39.3191175,18.4397059 C39.6352941,17.6492647 40.4632353,17.4654412 41.632353,17.9566177 C46.5500001,20.0227941 51.4595589,22.1058823 56.3808825,24.1632353 C58.2154413,24.9301471 60.0036765,23.9786765 60.2919117,22.1279412 C60.4749999,20.9514706 59.85,19.8669118 58.6183824,19.2955882 C55.4220588,17.8117647 52.2198528,16.3404412 49.0191177,14.8647059 C46.1257353,13.5308824 43.2007353,12.2617647 40.3514706,10.8397059 C38.7411765,10.0367647 36.7110294,10.8389706 36.0404412,12.6 C34.7639706,15.9529412 32.182353,17.9 28.8022059,18.7897059 C27.2029412,19.2095588 25.6764706,18.7948529 24.4125,17.6808823 C23.5007353,16.8772059 23.3625,15.9639706 24.0397059,14.975 C25.1705882,13.3227941 25.7411765,11.4691177 26.1352941,9.54191175 C26.2713235,8.87647059 26.1676471,8.76691176 25.4698529,8.91029412 C22.3242647,9.55588236 19.1625,10.0926471 15.9691177,10.4301471 C14.8661765,10.5470588 13.7566177,10.6095588 12.6522059,10.7117647 C12.1808824,10.7551471 11.9875,10.5683824 12.0007353,10.0977941 C12.0183824,9.47058825 12.0323529,8.84044119 11.9948529,8.21470587 C11.9602941,7.62647058 12.2044118,7.39926471 12.7786765,7.36250001 C14.2463235,7.26911766 15.7169118,7.17573528 17.1779412,7.0117647 C20.7823529,6.60882354 24.325,5.88382353 27.8147059,4.89779412 C28.0235294,4.8389706 28.2382353,4.78676472 28.3941176,4.61985294 C29.719853,3.20514705 31.4904411,2.6007353 33.2463234,1.99338235 C35.6492646,1.1625 38.122794,0.630882354 40.6580883,0.394117647 C42.2647059,0.244117647 43.7713236,0.660294117 45.2632353,1.16397059 C47.5095588,1.92279412 49.6176471,3.00735294 51.7661766,3.99338235 C55.1632353,5.55220587 58.65,6.79705881 62.3977941,7.16617647 C62.8720587,7.21250001 63.0029412,7.4617647 62.9977941,7.88676471 C62.9867646,8.75588235 62.9970588,9.62499999 62.9970588,10.4941177 C62.9970588,16.2397059 62.9860293,21.9860294 63.0095953,27.7316176 C63.0125001,28.4 62.8382352,28.7558824 62.1514707,28.8838235 C61.5867648,28.9882353 61.0389705,29.2 60.4911765,29.3852941 C59.4779412,29.7272059 58.5970587,30.1522059 58.0264707,31.207353 C57.4308825,32.3058825 56.317647,32.9029413 55.0698528,33.0933825 C54.4463235,33.1882353 54.2647059,33.4286766 54.2441175,34.0683825 C54.1382352,37.3382352 51.0279411,39.510294 47.9279412,38.4757353 C47.2220589,38.2397058 46.9110294,38.2477941 46.6294119,39.0397059 C46.072794,40.6088235 44.864706,41.5580883 43.2477942,41.902206 C42.6529413,42.0286764 42.4235295,42.2919117 42.2816175,42.8580882 C42.0272058,43.8735294 41.4941175,44.7830883 40.8441177,45.5933823 C40.0294119,46.6088235 38.5941177,46.9448529 37.3580883,46.5080883 C36.1110294,46.0676472 35.2919118,44.9301471 35.2514706,43.5816177 C35.2463235,43.3698528 35.2507353,43.1580882 35.2507353,42.9404412 C35.0051472,42.9536766 34.9852941,43.1588235 34.9007352,43.2882354 C33.9397059,44.7477942 32.317647,45.3382353 30.7485294,44.7904413 C29.1698529,44.2397058 28.2985294,42.7808823 28.4948529,41.0154411 C28.5132353,40.8477942 28.5301471,40.6794117 28.5477941,40.5110295 C28.5558824,40.4742648 28.5639706,40.4375001 28.5713235,40.4007354 C28.5352941,40.4139705 28.4985294,40.4264706 28.4625,40.439706" id="Fill-68" fill="#8AA5A4"></path>
                </g>
            </g>
        </g>
    </g>
</svg>