<?xml version="1.0" encoding="UTF-8"?>
<svg width="43px" height="43px" viewBox="0 0 43 43" version="1.1" xmlns="http://www.w3.org/2000/svg" xmlns:xlink="http://www.w3.org/1999/xlink">
    <!-- Generator: Sketch 55.2 (78181) - https://sketchapp.com -->
    <title>Instagram_Logo_Software_Factory</title>
    <desc>Created with Sketch.</desc>
    <g id="Home-Expertise" stroke="none" stroke-width="1" fill="none" fill-rule="evenodd">
        <g id="Home" transform="translate(-1164.000000, -7535.000000)">
            <g id="Instagram_Logo_Software_Factory" transform="translate(1164.187500, 7535.863534)">
                <path d="M21.0009,-1.98951966e-13 C9.4021,-1.98951966e-13 -1.13686838e-13,9.402 -1.13686838e-13,21.0026 C-1.13686838e-13,32.5996 9.4021,42.0052 21.0009,42.0052 C32.5979,42.0052 42.0017,32.5996 42.0017,21.0026 C42,9.402 32.5979,-1.98951966e-13 21.0009,-1.98951966e-13 Z" id="Path" fill="#F5A623"></path>
                <path d="M29.08,12.0269 L26.3835,12.0269 C25.8889,12.0269 25.487,12.4271 25.487,12.9217 L25.487,15.62 C25.487,16.111 25.8872,16.5147 26.3835,16.5147 L29.08,16.5147 C29.5746,16.5147 29.9748,16.1128 29.9748,15.62 L29.9748,12.9217 C29.973,12.4289 29.5746,12.0269 29.08,12.0269 Z" id="Fill-674" fill="#0D1B1F"></path>
                <path d="M21.0009,16.5147 C23.4772,16.5147 25.4887,18.5227 25.4887,21.0026 C25.4887,23.4789 23.479,25.4904 21.0009,25.4904 C18.5228,25.4904 16.513,23.4807 16.513,21.0026 C16.513,19.6744 17.0898,18.4825 18.0055,17.6594 C18.8006,16.9481 19.8492,16.5147 21.0009,16.5147 Z" id="Fill-676" fill="#0D1B1F"></path>
                <path d="M28.18,21.0008 C28.18,24.9661 24.9662,28.1817 21.0009,28.1817 C17.0338,28.1817 13.8217,24.9644 13.8217,21.0008 C13.8217,20.3822 13.9091,19.7775 14.0577,19.2043 L12.0235,19.2043 L12.0235,29.0782 C12.0235,29.5728 12.4237,29.9765 12.9217,29.9765 L29.08,29.9765 C29.5746,29.9765 29.9748,29.5763 29.9748,29.0782 L29.9748,19.2043 L27.9441,19.2043 C28.0909,19.7775 28.18,20.3822 28.18,21.0008 Z" id="Fill-677" fill="#0D1B1F"></path>
                <path d="M32.6661,29.9747 C32.6661,31.4654 31.462,32.6678 29.973,32.6678 L12.0235,32.6678 C10.538,32.6678 9.3304,31.4654 9.3304,29.9747 L9.3304,12.0269 C9.3322,10.5397 10.538,9.3339 12.0235,9.3339 L29.973,9.3339 C31.462,9.3339 32.6661,10.538 32.6661,12.0269 L32.6661,29.9747 Z" id="Path" stroke="#0D1B1F"></path>
            </g>
        </g>
    </g>
</svg>