<?xml version="1.0" encoding="UTF-8"?>
<svg width="43px" height="43px" viewBox="0 0 43 43" version="1.1" xmlns="http://www.w3.org/2000/svg" xmlns:xlink="http://www.w3.org/1999/xlink">
    <!-- Generator: Sketch 55.2 (78181) - https://sketchapp.com -->
    <title>LinkedIn_Logo_Software_Factory</title>
    <desc>Created with Sketch.</desc>
    <g id="Home-Expertise" stroke="none" stroke-width="1" fill="none" fill-rule="evenodd">
        <g id="Home" transform="translate(-1109.000000, -7535.000000)">
            <g id="LinkedIn_Logo_Software_Factory" transform="translate(1109.187500, 7535.863534)">
                <path d="M21.0009,-1.98951966e-13 C9.4021,-1.98951966e-13 -1.13686838e-13,9.402 -1.13686838e-13,21.0026 C-1.13686838e-13,32.5996 9.4021,42.0052 21.0009,42.0052 C32.5979,42.0052 42.0017,32.5996 42.0017,21.0026 C42,9.402 32.5979,-1.98951966e-13 21.0009,-1.98951966e-13 Z" id="Path" fill="#F5A623"></path>
                <path d="M32.6975,31.2016 C32.6975,32.1365 31.9234,32.895 30.9639,32.895 L10.9959,32.895 C10.0364,32.895 9.264,32.1365 9.264,31.2016 L9.264,11.0011 C9.264,10.0679 10.0364,9.3094 10.9959,9.3094 L30.9639,9.3094 C31.9199,9.3094 32.6975,10.0679 32.6975,11.0011 L32.6975,31.2016 Z" id="Path" fill="#0D1B1F"></path>
            </g>
        </g>
    </g>
</svg>