<?xml version="1.0" encoding="UTF-8"?>
<svg width="62px" height="62px" viewBox="0 0 62 62" version="1.1" xmlns="http://www.w3.org/2000/svg" xmlns:xlink="http://www.w3.org/1999/xlink">
    <!-- Generator: Sketch 55.2 (78181) - https://sketchapp.com -->
    <title>Logo</title>
    <desc>Created with Sketch.</desc>
    <g id="Page-1" stroke="none" stroke-width="1" fill="none" fill-rule="evenodd">
        <g id="sonixc-321-104-Software-Factory-black" transform="translate(-104.000000, -21.000000)" fill="#FFFFFF">
            <g id="Logo" transform="translate(104.000000, 21.000000)">
                <polygon id="Fill-191" points="53.0162928 52.778 52.2094928 52.444 61.1591928 30.832 61.9659928 31.168"></polygon>
                <path d="M52.6120928,9.825 C52.5566928,9.825 52.4998928,9.815 52.4459928,9.792 L30.8342928,0.841 C30.6127928,0.748 30.5049928,0.494 30.5977928,0.271 C30.6890928,0.049 30.9450928,-0.057 31.1680928,0.034 L52.7797928,8.986 C53.0027928,9.078 53.1090928,9.333 53.0162928,9.556 C52.9458928,9.725 52.7842928,9.825 52.6120928,9.825 L52.6120928,9.825 Z" id="Fill-192"></path>
                <path d="M0.437522835,31.436 C0.382142835,31.436 0.325262835,31.425 0.271372835,31.403 C0.0498428354,31.31 -0.0579371646,31.055 0.0348628354,30.832 L8.98609284,9.221 C9.07889284,8.998 9.33339284,8.894 9.55639284,8.984 C9.77789284,9.077 9.88569284,9.331 9.79289284,9.554 L0.841672835,31.166 C0.769822835,31.335 0.608162835,31.436 0.437522835,31.436 L0.437522835,31.436 Z" id="Fill-193"></path>
                <path d="M31.0003928,62 C30.9450928,62 30.8881928,61.988 30.8342928,61.967 L9.22259284,53.016 C9.00109284,52.923 8.89329284,52.669 8.98609284,52.446 C9.07889284,52.224 9.33339284,52.121 9.55639284,52.209 L31.1680928,61.16 C31.3895928,61.253 31.4973928,61.508 31.4045928,61.731 C31.3327928,61.898 31.1710928,62 31.0003928,62 L31.0003928,62 Z" id="Fill-194"></path>
                <path d="M61.5633928,31.436 C61.3926928,31.436 61.2295928,31.335 61.1591928,31.166 L52.2094928,9.556 C52.1166928,9.333 52.2229928,9.077 52.4459928,8.986 C52.6674928,8.894 52.9219928,8.999 53.0162928,9.222 L61.9659928,30.834 C62.0587928,31.057 61.9524928,31.313 61.7294928,31.404 C61.6755928,31.427 61.6186928,31.436 61.5633928,31.436 L61.5633928,31.436 Z" id="Fill-195"></path>
                <path d="M9.38879284,9.825 C9.21809284,9.825 9.05499284,9.725 8.98459284,9.556 C8.89179284,9.333 8.99959284,9.077 9.22109284,8.986 L30.8327928,0.034 C31.0557928,-0.058 31.3117928,0.048 31.4030928,0.271 C31.4958928,0.494 31.3880928,0.75 31.1665928,0.841 L9.55489284,9.792 C9.50099284,9.815 9.44419284,9.825 9.38879284,9.825 L9.38879284,9.825 Z" id="Fill-196"></path>
                <path d="M9.38879284,53.047 C9.21809284,53.047 9.05499284,52.945 8.98459284,52.776 L0.0333728354,31.166 C-0.0594371646,30.943 0.0483328354,30.687 0.269872835,30.596 C0.491412835,30.505 0.747372835,30.609 0.840182835,30.832 L9.79139284,52.444 C9.88419284,52.666 9.77649284,52.922 9.55489284,53.014 C9.50099284,53.037 9.44419284,53.047 9.38879284,53.047 L9.38879284,53.047 Z" id="Fill-197"></path>
                <path d="M31.0003928,62 C30.8297928,62 30.6665928,61.898 30.5962928,61.729 C30.5034928,61.508 30.6112928,61.252 30.8327928,61.159 L52.4444928,52.208 C52.6659928,52.119 52.9204928,52.222 53.0147928,52.444 C53.1075928,52.666 53.0012928,52.922 52.7782928,53.014 L31.1665928,61.966 C31.1126928,61.988 31.0557928,62 31.0003928,62 L31.0003928,62 Z" id="Fill-198"></path>
                <path d="M52.6120928,53.047 L9.38879284,53.047 C9.14779284,53.047 8.95319284,52.851 8.95319284,52.61 C8.95319284,52.369 9.14779284,52.173 9.38879284,52.173 L52.6120928,52.173 C52.8530928,52.173 53.0491928,52.369 53.0491928,52.61 C53.0491928,52.851 52.8530928,53.047 52.6120928,53.047 L52.6120928,53.047 Z" id="Fill-199"></path>
                <path d="M9.38879284,53.047 C9.14779284,53.047 8.95319284,52.851 8.95319284,52.61 L8.95319284,9.388 C8.95319284,9.147 9.14779284,8.951 9.38879284,8.951 C9.62979284,8.951 9.82429284,9.146 9.82429284,9.388 L9.82429284,52.61 C9.82429284,52.853 9.62979284,53.047 9.38879284,53.047 L9.38879284,53.047 Z" id="Fill-200"></path>
                <path d="M31.0003928,62 C30.8896928,62 30.7773928,61.957 30.6905928,61.871 L0.157612835,31.245 C-0.0130271646,31.075 -0.0115371646,30.798 0.157612835,30.627 C0.328252835,30.458 0.605172835,30.457 0.774312835,30.627 L31.3102928,61.253 C31.4793928,61.424 31.4793928,61.701 31.3087928,61.87 C31.2219928,61.958 31.1111928,62 31.0003928,62 L31.0003928,62 Z" id="Fill-201"></path>
                <path d="M0.437522835,31.436 C0.326752835,31.436 0.214492835,31.394 0.129172835,31.308 C-0.0414671646,31.138 -0.0414671646,30.862 0.129172835,30.692 L30.6920928,0.129 C30.8611928,-0.042 31.1396928,-0.042 31.3087928,0.129 C31.4793928,0.299 31.4793928,0.575 31.3087928,0.745 L0.745882835,31.308 C0.660562835,31.394 0.548292835,31.436 0.437522835,31.436 L0.437522835,31.436 Z" id="Fill-202"></path>
                <path d="M61.5633928,31.436 C61.4525928,31.436 61.3402928,31.394 61.2549928,31.308 L30.6920928,0.745 C30.5214928,0.575 30.5214928,0.299 30.6920928,0.129 C30.8611928,-0.042 31.1396928,-0.042 31.3087928,0.129 L61.8716928,30.692 C62.0423928,30.862 62.0423928,31.138 61.8716928,31.308 C61.7863928,31.394 61.6740928,31.436 61.5633928,31.436 L61.5633928,31.436 Z" id="Fill-203"></path>
                <path d="M52.6120928,9.825 L9.38879284,9.825 C9.14779284,9.825 8.95319284,9.631 8.95319284,9.388 C8.95319284,9.146 9.14779284,8.951 9.38879284,8.951 L52.6120928,8.951 C52.8530928,8.951 53.0491928,9.146 53.0491928,9.388 C53.0491928,9.631 52.8530928,9.825 52.6120928,9.825 L52.6120928,9.825 Z" id="Fill-204"></path>
                <path d="M52.6120928,53.047 C52.3710928,53.047 52.1750928,52.851 52.1750928,52.61 L52.1750928,9.388 C52.1750928,9.147 52.3710928,8.951 52.6120928,8.951 C52.8530928,8.951 53.0491928,9.146 53.0491928,9.388 L53.0491928,52.61 C53.0491928,52.853 52.8530928,53.047 52.6120928,53.047 L52.6120928,53.047 Z" id="Fill-205"></path>
                <path d="M31.0003928,62 C30.8896928,62 30.7773928,61.958 30.6920928,61.871 C30.5214928,61.702 30.5214928,61.424 30.6920928,61.255 L61.2549928,30.692 C61.4241928,30.521 61.7025928,30.521 61.8716928,30.692 C62.0423928,30.862 62.0423928,31.138 61.8716928,31.308 L31.3087928,61.871 C31.2234928,61.958 31.1111928,62 31.0003928,62 L31.0003928,62 Z" id="Fill-206"></path>
                <path d="M9.38879284,53.047 C9.21809284,53.047 9.05499284,52.945 8.98459284,52.776 C8.89179284,52.555 8.99959284,52.299 9.22109284,52.206 L61.3956928,30.596 C61.6157928,30.505 61.8716928,30.609 61.9659928,30.832 C62.0587928,31.055 61.9524928,31.311 61.7294928,31.403 L9.55639284,53.014 C9.50099284,53.037 9.44419284,53.047 9.38879284,53.047 L9.38879284,53.047 Z" id="Fill-207"></path>
                <path d="M9.45309284,53.076 C9.39769284,53.076 9.34239284,53.064 9.28699284,53.043 C9.06539284,52.95 8.95769284,52.697 9.05049284,52.472 L30.5962928,0.271 C30.6875928,0.049 30.9435928,-0.058 31.1665928,0.034 C31.3895928,0.127 31.4958928,0.382 31.4030928,0.605 L9.85729284,52.805 C9.78689284,52.974 9.62529284,53.076 9.45309284,53.076 L9.45309284,53.076 Z" id="Fill-208"></path>
                <path d="M52.6120928,53.047 C52.5566928,53.047 52.4998928,53.035 52.4459928,53.014 L0.271372835,31.403 C0.0498428354,31.31 -0.0579371646,31.055 0.0348628354,30.832 C0.127672835,30.609 0.380642835,30.506 0.605172835,30.596 L52.7797928,52.208 C53.0027928,52.3 53.1090928,52.555 53.0162928,52.778 C52.9458928,52.945 52.7842928,53.047 52.6120928,53.047 L52.6120928,53.047 Z" id="Fill-209"></path>
                <path d="M0.437522835,31.436 C0.266882835,31.436 0.103722835,31.335 0.0333728354,31.166 C-0.0594371646,30.943 0.0483328354,30.687 0.269872835,30.596 L52.4459928,8.986 C52.6674928,8.894 52.9219928,8.999 53.0162928,9.222 C53.1090928,9.445 53.0027928,9.701 52.7797928,9.792 L0.603672835,31.403 C0.549792835,31.427 0.492902835,31.436 0.437522835,31.436 L0.437522835,31.436 Z" id="Fill-210"></path>
                <path d="M31.0003928,62 C30.8297928,62 30.6665928,61.898 30.5962928,61.729 L8.98609284,9.556 C8.89329284,9.333 9.00109284,9.077 9.22259284,8.986 C9.44409284,8.894 9.69859284,8.999 9.79289284,9.222 L31.4045928,61.397 C31.4973928,61.618 31.3895928,61.874 31.1680928,61.967 C31.1126928,61.988 31.0557928,62 31.0003928,62 L31.0003928,62 Z" id="Fill-211"></path>
                <path d="M61.5633928,31.436 C61.5079928,31.436 61.4510928,31.425 61.3971928,31.403 L9.22259284,9.792 C9.00109284,9.7 8.89329284,9.445 8.98609284,9.222 C9.07889284,8.999 9.33339284,8.896 9.55639284,8.986 L61.7294928,30.596 C61.9525928,30.689 62.0587928,30.943 61.9659928,31.166 C61.8956928,31.335 61.7339928,31.436 61.5633928,31.436 L61.5633928,31.436 Z" id="Fill-212"></path>
                <path d="M52.6120928,53.047 C52.4414928,53.047 52.2782928,52.945 52.2079928,52.776 L30.5962928,0.605 C30.5034928,0.382 30.6112928,0.126 30.8327928,0.034 C31.0557928,-0.058 31.3117928,0.048 31.4030928,0.271 L53.0147928,52.446 C53.1075928,52.667 53.0012928,52.923 52.7782928,53.016 C52.7243928,53.037 52.6674928,53.047 52.6120928,53.047 L52.6120928,53.047 Z" id="Fill-213"></path>
                <path d="M31.0003928,62 C30.9450928,62 30.8881928,61.988 30.8342928,61.967 C30.6127928,61.874 30.5049928,61.62 30.5977928,61.397 L52.2094928,9.222 C52.3022928,8.999 52.5582928,8.896 52.7797928,8.986 C53.0027928,9.078 53.1090928,9.333 53.0162928,9.556 L31.4030928,61.729 C31.3327928,61.898 31.1710928,62 31.0003928,62 L31.0003928,62 Z" id="Fill-214"></path>
                <path d="M9.45309284,53.076 C9.34239284,53.076 9.23159284,53.034 9.14479284,52.947 C8.97409284,52.778 8.97409284,52.501 9.14329284,52.33 L52.3037928,9.08 C52.4728928,8.912 52.7512928,8.909 52.9204928,9.08 C53.0910928,9.251 53.0910928,9.526 52.9204928,9.698 L9.76299284,52.947 C9.67769284,53.032 9.56389284,53.076 9.45309284,53.076 L9.45309284,53.076 Z" id="Fill-215"></path>
                <path d="M61.5633928,31.436 L0.437522835,31.436 C0.196532835,31.436 0.00193283543,31.241 0.00193283543,30.999 C0.00193283543,30.756 0.196532835,30.561 0.437522835,30.561 L61.5633928,30.561 C61.8043928,30.561 62.0003928,30.756 62.0003928,30.999 C62.0003928,31.241 61.8043928,31.436 61.5633928,31.436 L61.5633928,31.436 Z" id="Fill-216"></path>
                <path d="M52.6120928,53.047 C52.5013928,53.047 52.3890928,53.005 52.3037928,52.919 L9.08039284,9.698 C8.90979284,9.528 8.90979284,9.252 9.08039284,9.081 C9.24959284,8.911 9.52799284,8.911 9.69709284,9.081 L52.9204928,52.303 C53.0910928,52.472 53.0910928,52.751 52.9204928,52.92 C52.8366928,53.005 52.7228928,53.047 52.6120928,53.047 L52.6120928,53.047 Z" id="Fill-217"></path>
                <path d="M31.0003928,62 C30.7594928,62 30.5648928,61.804 30.5648928,61.563 L30.5648928,0.437 C30.5648928,0.196 30.7594928,0 31.0003928,0 C31.2413928,0 31.4359928,0.195 31.4359928,0.437 L31.4359928,61.563 C31.4359928,61.804 31.2413928,62 31.0003928,62 L31.0003928,62 Z" id="Fill-218"></path>
            </g>
        </g>
    </g>
</svg>