<?xml version="1.0" encoding="UTF-8"?>
<svg width="43px" height="43px" viewBox="0 0 43 43" version="1.1" xmlns="http://www.w3.org/2000/svg" xmlns:xlink="http://www.w3.org/1999/xlink">
    <!-- Generator: Sketch 55.2 (78181) - https://sketchapp.com -->
    <title>Twitter_Logoe_Software_Factory</title>
    <desc>Created with Sketch.</desc>
    <g id="Home-Expertise" stroke="none" stroke-width="1" fill="none" fill-rule="evenodd">
        <g id="Home" transform="translate(-999.000000, -7535.000000)">
            <g id="Get-In-Contact" transform="translate(30.000000, 5836.000000)">
                <g id="Group" transform="translate(70.000000, 1329.000000)">
                    <g id="Client-Support" transform="translate(899.000000, 159.000000)">
                        <g id="Twitter_Logoe_Software_Factory" transform="translate(0.187500, 211.865234)">
                            <path d="M21.0009,3.69482223e-13 C9.4021,3.69482223e-13 0,9.4056 0,21.0009 C0,32.5997 9.4021,42.0017 21.0009,42.0017 C32.5997,42.0017 42,32.5997 42,21.0009 C42,9.4056 32.5997,3.69482223e-13 21.0009,3.69482223e-13 Z" id="Path" fill="#F5A623"></path>
                            <path d="M31.5808,16.7664 C31.5913,16.9954 31.5966,17.2226 31.5966,17.4515 C31.5966,24.4454 26.2734,32.5105 16.5393,32.5105 C13.5491,32.5105 10.7687,31.635 8.4252,30.1338 C8.8393,30.1775 9.2605,30.2055 9.6869,30.2055 C12.1685,30.2055 14.4491,29.3596 16.2614,27.9406 C13.9441,27.8951 11.9903,26.3695 11.3157,24.2636 C11.639,24.3266 11.971,24.3598 12.3118,24.3598 C12.7942,24.3598 13.2625,24.2951 13.7064,24.1763 C11.2842,23.6869 9.4597,21.5479 9.4597,18.9859 C9.4597,18.9597 9.4597,18.9387 9.4615,18.9195 C10.1745,19.3162 10.9906,19.5521 11.8574,19.5801 C10.4384,18.6294 9.5017,17.0129 9.5017,15.1744 C9.5017,14.2062 9.7638,13.2975 10.2199,12.5145 C12.8309,15.7196 16.7297,17.822 21.1284,18.0474 C21.0393,17.6577 20.9921,17.254 20.9921,16.8398 C20.9921,13.9161 23.3601,11.5499 26.2856,11.5499 C27.8078,11.5499 29.1831,12.193 30.1478,13.2188 C31.3536,12.9829 32.4861,12.5425 33.5084,11.9396 C33.1117,13.1716 32.2746,14.2132 31.1806,14.8668 C32.2519,14.7375 33.2725,14.4509 34.2214,14.0297 C33.5137,15.0853 32.6137,16.0185 31.5808,16.7664 Z" id="Path" fill="#0D1B1F"></path>
                        </g>
                    </g>
                </g>
            </g>
        </g>
    </g>
</svg>